<svg xmlns="http://www.w3.org/2000/svg" fill="none" viewBox="0 0 24 24" id="Settings-Input-Svideo--Streamline-Rounded-Material" height="24" width="24">
  <desc>MIDI plug icon</desc>
  <path fill="#000000" d="M12 22c-1.4 0 -2.70835 -0.25835 -3.925 -0.775S5.8 20 4.9 19.1c-0.9 -0.9 -1.608335 -1.95835 -2.125 -3.175C2.258335 14.70835 2 13.4 2 12c0 -1.3955 0.258335 -2.70265 0.775 -3.9215C3.291665 6.8595 4 5.8 4.9 4.9c0.9 -0.9 1.95835 -1.608335 3.175 -2.125C9.29165 2.258335 10.6 2 12 2c1.3955 0 2.70265 0.258335 3.9215 0.775C17.1405 3.291665 18.2 4 19.1 4.9c0.9 0.9 1.60835 1.9595 2.125 3.1785C21.74165 9.29735 22 10.6045 22 12c0 1.4 -0.25835 2.70835 -0.775 3.925S20 18.2 19.1 19.1c-0.9 0.9 -1.9595 1.60835 -3.1785 2.125C14.70265 21.74165 13.3955 22 12 22Zm-4.747 -9.325c0.348 0 0.64285 -0.12185 0.8845 -0.3655 0.24165 -0.24365 0.3625 -0.5395 0.3625 -0.8875s-0.12185 -0.64285 -0.3655 -0.8845c-0.24365 -0.24165 -0.5395 -0.3625 -0.8875 -0.3625s-0.64285 0.12185 -0.8845 0.3655c-0.24165 0.24365 -0.3625 0.5395 -0.3625 0.8875s0.12185 0.64285 0.3655 0.8845c0.24365 0.24165 0.5395 0.3625 0.8875 0.3625Zm9.5 0c0.348 0 0.64285 -0.12185 0.8845 -0.3655 0.24165 -0.24365 0.3625 -0.5395 0.3625 -0.8875s-0.12185 -0.64285 -0.3655 -0.8845c-0.24365 -0.24165 -0.5395 -0.3625 -0.8875 -0.3625s-0.64285 0.12185 -0.8845 0.3655c-0.24165 0.24365 -0.3625 0.5395 -0.3625 0.8875s0.12185 0.64285 0.3655 0.8845c0.24365 0.24165 0.5395 0.3625 0.8875 0.3625Zm-7.925 4.925c0.348 0 0.64285 -0.12185 0.8845 -0.3655 0.24165 -0.24365 0.3625 -0.5395 0.3625 -0.8875s-0.12185 -0.64285 -0.3655 -0.8845c-0.24365 -0.24165 -0.5395 -0.3625 -0.8875 -0.3625s-0.64285 0.12185 -0.8845 0.3655c-0.24165 0.24365 -0.3625 0.5395 -0.3625 0.8875s0.12185 0.64285 0.3655 0.8845c0.24365 0.24165 0.5395 0.3625 0.8875 0.3625Zm6.325 0c0.348 0 0.64285 -0.12185 0.8845 -0.3655 0.24165 -0.24365 0.3625 -0.5395 0.3625 -0.8875s-0.12185 -0.64285 -0.3655 -0.8845c-0.24365 -0.24165 -0.5395 -0.3625 -0.8875 -0.3625s-0.64285 0.12185 -0.8845 0.3655c-0.24165 0.24365 -0.3625 0.5395 -0.3625 0.8875s0.12185 0.64285 0.3655 0.8845c0.24365 0.24165 0.5395 0.3625 0.8875 0.3625ZM10.4 8.5h3.175c0.33335 0 0.625 -0.125 0.875 -0.375s0.375 -0.54165 0.375 -0.875c0 -0.33335 -0.125 -0.65 -0.375 -0.95 -0.25 -0.3 -0.54165 -0.45 -0.875 -0.45H10.4c-0.33335 0 -0.625 0.15 -0.875 0.45 -0.25 0.3 -0.375 0.61665 -0.375 0.95 0 0.33335 0.125 0.625 0.375 0.875s0.54165 0.375 0.875 0.375ZM12 20.5c2.33335 0 4.33335 -0.83335 6 -2.5 1.66665 -1.66665 2.5 -3.66665 2.5 -6s-0.83335 -4.33335 -2.5 -6c-1.66665 -1.666665 -3.66665 -2.5 -6 -2.5s-4.33335 0.833335 -6 2.5c-1.666665 1.66665 -2.5 3.66665 -2.5 6s0.833335 4.33335 2.5 6c1.66665 1.66665 3.66665 2.5 6 2.5Z" stroke-width="0.5"/>
</svg>
